<svg width="90" height="45" viewBox="0 0 113 59" fill="none" xmlns="http://www.w3.org/2000/svg">
<path d="M109 8.85714H93.0402L95.9135 2.40691L96.5402 1H95H25H24.3507L24.0865 1.59309L3.08653 48.7359L2.45982 50.1429H4H19.9598L17.0865 56.5931L16.4598 58H18H88H88.6493L88.9135 57.4069L109.913 10.2641L110.54 8.85714H109Z" stroke="white" stroke-width="2"/>
<path d="M25.96 28.446V33H23.746V20.4C24.274 20.4 24.844 20.394 25.456 20.382C26.08 20.37 26.704 20.364 27.328 20.364C28.216 20.364 28.984 20.478 29.632 20.706C30.292 20.922 30.802 21.228 31.162 21.624C31.522 22.008 31.786 22.434 31.954 22.902C32.122 23.358 32.206 23.862 32.206 24.414C32.206 25.554 31.798 26.52 30.982 27.312C30.178 28.104 29.05 28.5 27.598 28.5C26.866 28.5 26.32 28.482 25.96 28.446ZM27.544 22.434L25.96 22.47V26.34C26.596 26.4 27.118 26.43 27.526 26.43C28.234 26.43 28.798 26.256 29.218 25.908C29.65 25.56 29.866 25.056 29.866 24.396C29.866 23.088 29.092 22.434 27.544 22.434ZM37.5907 33H35.5207V24.9H37.5907V25.692C38.0347 25.068 38.6527 24.756 39.4447 24.756C40.0087 24.756 40.4287 24.858 40.7047 25.062L39.9667 27.006C39.6187 26.802 39.2707 26.7 38.9227 26.7C38.3227 26.7 37.8787 26.988 37.5907 27.564V33ZM44.566 32.01C43.762 31.206 43.36 30.186 43.36 28.95C43.36 27.714 43.762 26.7 44.566 25.908C45.37 25.104 46.438 24.702 47.77 24.702C49.09 24.702 50.152 25.104 50.956 25.908C51.772 26.7 52.18 27.714 52.18 28.95C52.18 30.174 51.772 31.194 50.956 32.01C50.14 32.802 49.078 33.198 47.77 33.198C46.438 33.198 45.37 32.802 44.566 32.01ZM46.204 27.294C45.784 27.726 45.574 28.278 45.574 28.95C45.574 29.622 45.778 30.18 46.186 30.624C46.606 31.056 47.134 31.272 47.77 31.272C48.418 31.272 48.946 31.056 49.354 30.624C49.774 30.192 49.984 29.634 49.984 28.95C49.984 28.278 49.774 27.726 49.354 27.294C48.934 26.862 48.406 26.646 47.77 26.646C47.146 26.646 46.624 26.862 46.204 27.294ZM55.7714 29.922V22.65H57.8414V24.9H60.4514V26.844H57.8414V29.796C57.8414 30.768 58.1654 31.254 58.8134 31.254C59.2214 31.254 59.6354 31.098 60.0554 30.786L60.6854 32.388C60.0254 32.916 59.2274 33.18 58.2914 33.18C57.4154 33.18 56.7734 32.916 56.3654 32.388C55.9694 31.848 55.7714 31.026 55.7714 29.922ZM70.4553 30.732L71.0493 32.19C70.2453 32.862 69.2133 33.198 67.9533 33.198C66.6573 33.198 65.6013 32.808 64.7853 32.028C63.9933 31.26 63.5973 30.234 63.5973 28.95C63.5973 27.75 63.9873 26.742 64.7673 25.926C65.5473 25.11 66.5853 24.702 67.8813 24.702C68.9493 24.702 69.8553 25.056 70.5993 25.764C71.3433 26.472 71.7153 27.372 71.7153 28.464C71.7153 28.944 71.6733 29.316 71.5893 29.58H65.7393C65.8233 30.168 66.0813 30.63 66.5133 30.966C66.9573 31.302 67.5093 31.47 68.1693 31.47C69.0693 31.47 69.8313 31.224 70.4553 30.732ZM67.7913 26.43C66.6153 26.43 65.9073 27.018 65.6673 28.194H69.6453C69.6573 27.678 69.4893 27.258 69.1413 26.934C68.8053 26.598 68.3553 26.43 67.7913 26.43ZM81.4478 30.282L82.4198 31.794C81.7358 32.73 80.6618 33.198 79.1978 33.198C77.8898 33.198 76.8278 32.808 76.0118 32.028C75.2078 31.26 74.8058 30.234 74.8058 28.95C74.8058 27.738 75.2018 26.73 75.9938 25.926C76.7858 25.11 77.7878 24.702 78.9998 24.702C80.4398 24.702 81.5258 25.068 82.2578 25.8L81.2858 27.438C80.7338 26.91 80.0618 26.646 79.2698 26.646C78.6698 26.646 78.1418 26.862 77.6858 27.294C77.2418 27.702 77.0198 28.254 77.0198 28.95C77.0198 29.646 77.2478 30.21 77.7038 30.642C78.1838 31.062 78.7358 31.272 79.3598 31.272C80.1638 31.272 80.8598 30.942 81.4478 30.282ZM85.8813 29.922V22.65H87.9513V24.9H90.5613V26.844H87.9513V29.796C87.9513 30.768 88.2753 31.254 88.9233 31.254C89.3313 31.254 89.7453 31.098 90.1653 30.786L90.7953 32.388C90.1353 32.916 89.3373 33.18 88.4013 33.18C87.5253 33.18 86.8833 32.916 86.4753 32.388C86.0793 31.848 85.8813 31.026 85.8813 29.922Z" fill="white"/>
<path d="M96.5 1L89.5 16.5" stroke="white" stroke-width="2"/>
<path d="M2.5 50H75.5L80.5 40.5" stroke="white" stroke-width="2"/>
</svg>
