<?xml version="1.0" encoding="UTF-8"?>
<svg xmlns="http://www.w3.org/2000/svg" xmlns:xlink="http://www.w3.org/1999/xlink" width="30pt" height="30pt" viewBox="0 0 30 30" version="1.1">
<g id="surface1">
<path style=" stroke:none;fill-rule:nonzero;fill:rgb(32.941176%,47.058824%,91.372549%);fill-opacity:1;" d="M 14.886719 0 C 8.933594 0 4.125 4.804688 4.125 10.757812 C 4.125 12.835938 4.789062 14.816406 5.710938 16.445312 L 12.722656 28.582031 C 13.164062 29.375 14.046875 29.769531 14.886719 29.769531 C 15.71875 29.769531 16.5625 29.375 17.046875 28.582031 L 24.058594 16.453125 C 24.988281 14.824219 25.644531 12.875 25.644531 10.765625 C 25.644531 4.8125 20.839844 0 14.886719 0 Z M 14.886719 13.9375 C 12.722656 13.9375 10.957031 12.171875 10.957031 10.007812 C 10.957031 7.847656 12.722656 6.082031 14.886719 6.082031 C 17.046875 6.082031 18.8125 7.847656 18.8125 10.007812 C 18.8125 12.179688 17.046875 13.9375 14.886719 13.9375 Z M 14.886719 13.9375 "/>
</g>
</svg>
